<svg xmlns="http://www.w3.org/2000/svg" xmlns:xlink="http://www.w3.org/1999/xlink" width="15" height="10" viewBox="0 0 15 10"><defs><path id="rut9a" d="M1048.49 1191.52l1.7 1.5c.17.16.44.16.61 0l1.7-1.5 3.81 3.53h-11.63zm8.56-4.02v6.94l-3.83-3.54zm-13.11 0l3.83 3.4-3.83 3.54zm.8-.55h11.51l-5.75 5.08zm-.8-.95a.95.95 0 0 0-.94.95v8.1c0 .52.43.95.94.95h13.12c.51 0 .94-.43.94-.95v-8.1a.95.95 0 0 0-.94-.95z"/></defs><g><g transform="translate(-1043 -1186)"><use fill="#0d3862" xlink:href="#rut9a"/></g></g></svg>